<svg xmlns="http://www.w3.org/2000/svg" width="122" height="58" fill="none" viewBox="0 0 122 58"><path fill="#FF2742" d="M20.794 29.547a15.25 15.25 0 0 1-3.42.374c-2.542 0-4.81-.555-6.805-1.665-1.996-1.11-3.571-2.623-4.73-4.537-1.158-1.914-1.737-4.111-1.737-6.588 0-2.476.58-4.632 1.738-6.564 1.158-1.93 2.733-3.45 4.729-4.56 1.995-1.111 4.262-1.665 6.805-1.665s4.81.554 6.806 1.664c1.995 1.11 3.57 2.631 4.729 4.561a11.97 11.97 0 0 1 1.498 3.954h4.162a16.644 16.644 0 0 0-1.149-4.195c-.885-2.092-2.108-3.91-3.668-5.454-1.561-1.544-3.395-2.743-5.501-3.595C22.143.426 19.851 0 17.374 0c-2.476 0-4.729.426-6.853 1.279-2.124.851-3.965 2.05-5.527 3.595-1.561 1.544-2.783 3.361-3.668 5.453C.442 12.417 0 14.687 0 17.133c0 2.446.443 4.753 1.326 6.829a16.846 16.846 0 0 0 3.668 5.43c1.56 1.544 3.403 2.741 5.527 3.595 2.124.851 4.408 1.278 6.853 1.278 2.126 0 4.114-.314 5.968-.943l-2.548-3.775Z"></path><path fill="#FF2742" d="m23.84 16.886-8.668-5.85a.216.216 0 0 0-.336.18v11.7a.216.216 0 0 0 .336.18l8.668-5.85a.217.217 0 0 0 0-.36Z"></path><path fill="#fff" d="M31.71 57.998h-5.005l7.006-15.845-9.786-21.962h5.282l8.118 20.015-1.835-.222 7.895-19.793h5.004L31.71 57.998ZM51.252 26.084a12.777 12.777 0 0 1 4.753-4.726c2.001-1.148 4.243-1.723 6.727-1.723 2.485 0 4.772.575 6.757 1.723a12.846 12.846 0 0 1 4.725 4.726c1.168 2.002 1.751 4.3 1.751 6.895 0 2.594-.583 4.846-1.75 6.867-1.168 2.02-2.744 3.606-4.727 4.753-1.984 1.15-4.235 1.724-6.756 1.724-2.52 0-4.726-.574-6.727-1.724a12.698 12.698 0 0 1-4.753-4.753c-1.168-2.02-1.752-4.308-1.752-6.867 0-2.56.583-4.893 1.752-6.895Zm3.892 11.62a8.595 8.595 0 0 0 3.113 3.254c1.316.797 2.807 1.195 4.475 1.195 1.668 0 3.16-.398 4.475-1.195a8.607 8.607 0 0 0 3.114-3.253c.76-1.371 1.139-2.947 1.139-4.726 0-1.78-.381-3.363-1.14-4.753-.76-1.39-1.797-2.475-3.113-3.254-1.317-.778-2.807-1.167-4.475-1.167-1.668 0-3.16.389-4.475 1.167-1.317.779-2.354 1.864-3.113 3.254-.761 1.39-1.14 2.973-1.14 4.753 0 1.779.379 3.355 1.14 4.726ZM86.529 45.767h-4.448V20.19h4.448v25.576Zm6.116-21.657c-.483-.204-1.093-.305-1.835-.305-1.112 0-1.984.278-2.613.834-.63.556-1.066 1.317-1.306 2.28-.241.963-.362 2.056-.362 3.28h-2.002c0-2.039.361-3.845 1.084-5.42.723-1.576 1.658-2.827 2.808-3.753 1.149-.926 2.317-1.39 3.503-1.39.926 0 1.787.121 2.585.36.797.242 1.528.716 2.197 1.42l-2.447 3.669c-.594-.445-1.13-.769-1.612-.972v-.003ZM116.164 25.417c-.927-1.074-2.28-1.612-4.059-1.612-1.298 0-2.439.27-3.42.807a5.673 5.673 0 0 0-2.28 2.25c-.538.965-.807 2.077-.807 3.337v15.567h-4.448V20.192h4.448v4.003c.853-1.557 1.919-2.706 3.196-3.447 1.279-.742 2.753-1.112 4.421-1.112 2.706 0 4.845.899 6.421 2.697 1.576 1.798 2.364 4.235 2.364 7.31v16.125h-4.448V30.199c0-2.113-.464-3.707-1.39-4.782h.002Z"></path></svg>